<svg width="240" height="240" viewBox="0 0 240 240" fill="none" xmlns="http://www.w3.org/2000/svg">
  <rect width="240" height="240" rx="120" fill="#FFF4D6"/>
  <circle cx="120" cy="98" r="48" fill="#F2C8AE"/>
  <path d="M68 205c10-40 39-61 52-61s42 21 52 61H68Z" fill="#1B1B1B"/>
  <path d="M80 76c4-28 21-42 40-42 28 0 49 21 49 51 0 2 0 4-.2 5.8-12-10.4-27.9-16.8-45.3-16.8-15 0-28.8 4.7-40.2 12.8.1-4 .6-7.9 1.7-10.8Z" fill="#1B1B1B"/>
  <circle cx="103" cy="98" r="4" fill="#1B1B1B"/>
  <circle cx="137" cy="98" r="4" fill="#1B1B1B"/>
  <path d="M104 120c7 8 25 8 32 0" stroke="#1B1B1B" stroke-width="4" stroke-linecap="round"/>
</svg>
